P2
# CREATOR: GIMP PNM Filter Version 1.1
4 4
255
255
255
215
163
255
215
72
26
215
72
4
0
163
26
0
0
